{
    "asset" : {
        "generator" : "Khronos glTF Blender I/O v1.5.17",
        "version" : "2.0"
    },
    "scene" : 0,
    "scenes" : [
        {
            "name" : "Scene",
            "nodes" : [
                0
            ]
        }
    ],
    "nodes" : [
        {
            "mesh" : 0,
            "name" : "lollipopA"
        }
    ],
    "materials" : [
        {
            "name" : "White.007",
            "pbrMetallicRoughness" : {
                "baseColorFactor" : [
                    0.799102783203125,
                    0.799102783203125,
                    0.799102783203125,
                    1
                ],
                "metallicFactor" : 0,
                "roughnessFactor" : 0.5
            }
        },
        {
            "name" : "Purple.005",
            "pbrMetallicRoughness" : {
                "baseColorFactor" : [
                    0.2597089111804962,
                    0.052060261368751526,
                    0.5798950791358948,
                    1
                ],
                "metallicFactor" : 0,
                "roughnessFactor" : 0.20000000298023224
            }
        },
        {
            "name" : "Beige.002",
            "pbrMetallicRoughness" : {
                "baseColorFactor" : [
                    0.7029160857200623,
                    0.4253237545490265,
                    0.20689357817173004,
                    1
                ],
                "metallicFactor" : 0,
                "roughnessFactor" : 0.5
            }
        }
    ],
    "meshes" : [
        {
            "name" : "Cylinder.097",
            "primitives" : [
                {
                    "attributes" : {
                        "POSITION" : 0,
                        "NORMAL" : 1,
                        "TEXCOORD_0" : 2
                    },
                    "indices" : 3,
                    "material" : 0
                },
                {
                    "attributes" : {
                        "POSITION" : 4,
                        "NORMAL" : 5,
                        "TEXCOORD_0" : 6
                    },
                    "indices" : 7,
                    "material" : 1
                },
                {
                    "attributes" : {
                        "POSITION" : 8,
                        "NORMAL" : 9,
                        "TEXCOORD_0" : 10
                    },
                    "indices" : 11,
                    "material" : 2
                }
            ]
        }
    ],
    "accessors" : [
        {
            "bufferView" : 0,
            "componentType" : 5126,
            "count" : 401,
            "max" : [
                0.3430321514606476,
                0.7002288103103638,
                0.0653838962316513
            ],
            "min" : [
                -0.34303218126296997,
                0.014164358377456665,
                -0.06538320332765579
            ],
            "type" : "VEC3"
        },
        {
            "bufferView" : 1,
            "componentType" : 5126,
            "count" : 401,
            "type" : "VEC3"
        },
        {
            "bufferView" : 2,
            "componentType" : 5126,
            "count" : 401,
            "type" : "VEC2"
        },
        {
            "bufferView" : 3,
            "componentType" : 5123,
            "count" : 720,
            "type" : "SCALAR"
        },
        {
            "bufferView" : 4,
            "componentType" : 5126,
            "count" : 403,
            "max" : [
                0.3430321514606476,
                0.7002288103103638,
                0.0653838962316513
            ],
            "min" : [
                -0.34303218126296997,
                0.014164358377456665,
                -0.06538320332765579
            ],
            "type" : "VEC3"
        },
        {
            "bufferView" : 5,
            "componentType" : 5126,
            "count" : 403,
            "type" : "VEC3"
        },
        {
            "bufferView" : 6,
            "componentType" : 5126,
            "count" : 403,
            "type" : "VEC2"
        },
        {
            "bufferView" : 7,
            "componentType" : 5123,
            "count" : 720,
            "type" : "SCALAR"
        },
        {
            "bufferView" : 8,
            "componentType" : 5126,
            "count" : 84,
            "max" : [
                0.0423119030892849,
                0.35719621181488037,
                0.042311906814575195
            ],
            "min" : [
                -0.04231196269392967,
                -0.5999999642372131,
                -0.042311958968639374
            ],
            "type" : "VEC3"
        },
        {
            "bufferView" : 9,
            "componentType" : 5126,
            "count" : 84,
            "type" : "VEC3"
        },
        {
            "bufferView" : 10,
            "componentType" : 5126,
            "count" : 84,
            "type" : "VEC2"
        },
        {
            "bufferView" : 11,
            "componentType" : 5123,
            "count" : 180,
            "type" : "SCALAR"
        }
    ],
    "bufferViews" : [
        {
            "buffer" : 0,
            "byteLength" : 4812,
            "byteOffset" : 0
        },
        {
            "buffer" : 0,
            "byteLength" : 4812,
            "byteOffset" : 4812
        },
        {
            "buffer" : 0,
            "byteLength" : 3208,
            "byteOffset" : 9624
        },
        {
            "buffer" : 0,
            "byteLength" : 1440,
            "byteOffset" : 12832
        },
        {
            "buffer" : 0,
            "byteLength" : 4836,
            "byteOffset" : 14272
        },
        {
            "buffer" : 0,
            "byteLength" : 4836,
            "byteOffset" : 19108
        },
        {
            "buffer" : 0,
            "byteLength" : 3224,
            "byteOffset" : 23944
        },
        {
            "buffer" : 0,
            "byteLength" : 1440,
            "byteOffset" : 27168
        },
        {
            "buffer" : 0,
            "byteLength" : 1008,
            "byteOffset" : 28608
        },
        {
            "buffer" : 0,
            "byteLength" : 1008,
            "byteOffset" : 29616
        },
        {
            "buffer" : 0,
            "byteLength" : 672,
            "byteOffset" : 30624
        },
        {
            "buffer" : 0,
            "byteLength" : 360,
            "byteOffset" : 31296
        }
    ],
    "buffers" : [
        {
            "byteLength" : 31656,
            "uri" : "data:application/octet-stream;base64,"
        }
    ]
}
